<svg width="84" height="83" viewBox="0 0 84 83" fill="none" xmlns="http://www.w3.org/2000/svg">
<path d="M42.0003 46.6873C38.8878 46.6873 35.9627 47.3646 33.2248 48.7191C30.487 50.0736 28.2823 52.0478 26.6107 54.6415C25.9767 55.5637 25.8903 56.4859 26.3514 57.4082C26.8125 58.3304 27.5618 58.7915 28.5993 58.7915C29.0604 58.7915 29.4783 58.6906 29.8529 58.4889C30.2276 58.2872 30.559 57.9846 30.8472 57.5811C32.1729 55.7943 33.8156 54.3965 35.7753 53.3879C37.735 52.3792 39.81 51.8748 42.0003 51.8748C44.1906 51.8748 46.2656 52.3792 48.2253 53.3879C50.185 54.3965 51.8278 55.7943 53.1535 57.5811C53.384 57.9846 53.6866 58.2872 54.0613 58.4889C54.4359 58.6906 54.8538 58.7915 55.3149 58.7915C56.3524 58.7915 57.1017 58.316 57.5628 57.3649C58.0239 56.4139 57.9375 55.4484 57.3035 54.4686C55.6319 51.9325 53.4272 50.0016 50.6894 48.6759C47.9515 47.3502 45.0552 46.6873 42.0003 46.6873ZM54.1045 38.0415C55.5455 38.0415 56.7703 37.5372 57.779 36.5285C58.7877 35.5198 59.292 34.295 59.292 32.854C59.292 31.413 58.7877 30.1882 57.779 29.1795C56.7703 28.1708 55.5455 27.6665 54.1045 27.6665C52.6635 27.6665 51.4387 28.1708 50.43 29.1795C49.4213 30.1882 48.917 31.413 48.917 32.854C48.917 34.295 49.4213 35.5198 50.43 36.5285C51.4387 37.5372 52.6635 38.0415 54.1045 38.0415ZM29.8962 38.0415C31.3371 38.0415 32.562 37.5372 33.5706 36.5285C34.5793 35.5198 35.0837 34.295 35.0837 32.854C35.0837 31.413 34.5793 30.1882 33.5706 29.1795C32.562 28.1708 31.3371 27.6665 29.8962 27.6665C28.4552 27.6665 27.2304 28.1708 26.2217 29.1795C25.213 30.1882 24.7087 31.413 24.7087 32.854C24.7087 34.295 25.213 35.5198 26.2217 36.5285C27.2304 37.5372 28.4552 38.0415 29.8962 38.0415ZM42.0003 76.0832C37.2163 76.0832 32.7205 75.1754 28.5128 73.3597C24.3052 71.5441 20.6451 69.08 17.5326 65.9675C14.4201 62.855 11.9561 59.195 10.1404 54.9873C8.3248 50.7797 7.41699 46.2839 7.41699 41.4998C7.41699 36.7158 8.3248 32.22 10.1404 28.0123C11.9561 23.8047 14.4201 20.1446 17.5326 17.0321C20.6451 13.9196 24.3052 11.4556 28.5128 9.63994C32.7205 7.82432 37.2163 6.9165 42.0003 6.9165C46.7844 6.9165 51.2802 7.82432 55.4878 9.63994C59.6955 11.4556 63.3555 13.9196 66.468 17.0321C69.5805 20.1446 72.0446 23.8047 73.8602 28.0123C75.6758 32.22 76.5837 36.7158 76.5837 41.4998C76.5837 46.2839 75.6758 50.7797 73.8602 54.9873C72.0446 59.195 69.5805 62.855 66.468 65.9675C63.3555 69.08 59.6955 71.5441 55.4878 73.3597C51.2802 75.1754 46.7844 76.0832 42.0003 76.0832ZM42.0003 69.1665C49.7239 69.1665 56.2659 66.4863 61.6264 61.1259C66.9868 55.7655 69.667 49.2234 69.667 41.4998C69.667 33.7762 66.9868 27.2342 61.6264 21.8738C56.2659 16.5134 49.7239 13.8332 42.0003 13.8332C34.2767 13.8332 27.7347 16.5134 22.3743 21.8738C17.0139 27.2342 14.3337 33.7762 14.3337 41.4998C14.3337 49.2234 17.0139 55.7655 22.3743 61.1259C27.7347 66.4863 34.2767 69.1665 42.0003 69.1665Z" fill="#011627"/>
</svg>
