<svg width="18" height="18" viewBox="0 0 18 18" fill="none" xmlns="http://www.w3.org/2000/svg">
<path d="M6.966 11.5813L13.3222 5.225C13.4722 5.075 13.6472 5 13.8472 5C14.0472 5 14.2222 5.075 14.3722 5.225C14.5222 5.375 14.5972 5.55313 14.5972 5.75938C14.5972 5.96563 14.5222 6.14375 14.3722 6.29375L7.491 13.1938C7.341 13.3438 7.166 13.4188 6.966 13.4188C6.766 13.4188 6.591 13.3438 6.441 13.1938L3.216 9.96875C3.066 9.81875 2.99413 9.64063 3.00038 9.43438C3.00662 9.22813 3.08475 9.05 3.23475 8.9C3.38475 8.75 3.56287 8.675 3.76912 8.675C3.97537 8.675 4.1535 8.75 4.3035 8.9L6.966 11.5813Z" fill="#FDFFFC"/>
</svg>
