<svg width="84" height="83" viewBox="0 0 84 83" fill="none" xmlns="http://www.w3.org/2000/svg">
<path d="M14.3333 55.3333C13.3535 55.3333 12.5321 55.0019 11.8693 54.3391C11.2064 53.6762 10.875 52.8549 10.875 51.875C10.875 50.8951 11.2064 50.0738 11.8693 49.4109C12.5321 48.7481 13.3535 48.4167 14.3333 48.4167H35.0833C36.0632 48.4167 36.8845 48.7481 37.5474 49.4109C38.2102 50.0738 38.5417 50.8951 38.5417 51.875C38.5417 52.8549 38.2102 53.6762 37.5474 54.3391C36.8845 55.0019 36.0632 55.3333 35.0833 55.3333H14.3333ZM14.3333 41.5C13.3535 41.5 12.5321 41.1686 11.8693 40.5057C11.2064 39.8429 10.875 39.0215 10.875 38.0417C10.875 37.0618 11.2064 36.2405 11.8693 35.5776C12.5321 34.9148 13.3535 34.5833 14.3333 34.5833H48.9167C49.8965 34.5833 50.7179 34.9148 51.3807 35.5776C52.0436 36.2405 52.375 37.0618 52.375 38.0417C52.375 39.0215 52.0436 39.8429 51.3807 40.5057C50.7179 41.1686 49.8965 41.5 48.9167 41.5H14.3333ZM14.3333 27.6667C13.3535 27.6667 12.5321 27.3352 11.8693 26.6724C11.2064 26.0095 10.875 25.1882 10.875 24.2083C10.875 23.2285 11.2064 22.4071 11.8693 21.7443C12.5321 21.0814 13.3535 20.75 14.3333 20.75H48.9167C49.8965 20.75 50.7179 21.0814 51.3807 21.7443C52.0436 22.4071 52.375 23.2285 52.375 24.2083C52.375 25.1882 52.0436 26.0095 51.3807 26.6724C50.7179 27.3352 49.8965 27.6667 48.9167 27.6667H14.3333ZM57.0438 64.2385C56.5826 64.2385 56.1503 64.1665 55.7469 64.0224C55.3434 63.8783 54.9688 63.6333 54.6229 63.2875L47.1875 55.8521C46.5535 55.2181 46.222 54.4255 46.1932 53.4745C46.1644 52.5234 46.4958 51.7021 47.1875 51.0104C47.8215 50.3764 48.6141 50.045 49.5651 50.0161C50.5161 49.9873 51.3375 50.2899 52.0292 50.924L57.0438 55.8521L69.2344 43.6615C69.926 42.9698 70.7474 42.6384 71.6984 42.6672C72.6495 42.696 73.4708 43.0562 74.1625 43.7479C74.7965 44.4396 75.128 45.2465 75.1568 46.1688C75.1856 47.091 74.8542 47.8979 74.1625 48.5896L59.4646 63.2875C59.1188 63.6333 58.7441 63.8783 58.3406 64.0224C57.9372 64.1665 57.5049 64.2385 57.0438 64.2385Z" fill="#011627"/>
</svg>
