<svg width="35" height="36" viewBox="0 0 35 36" fill="none" xmlns="http://www.w3.org/2000/svg">
<path d="M17.45 18C17.8 18 18.0958 17.8792 18.3375 17.6375C18.5792 17.3958 18.7 17.1 18.7 16.75C18.7 16.4 18.5792 16.1042 18.3375 15.8625C18.0958 15.6208 17.8 15.5 17.45 15.5C17.1 15.5 16.8042 15.6208 16.5625 15.8625C16.3208 16.1042 16.2 16.4 16.2 16.75C16.2 17.1 16.3208 17.3958 16.5625 17.6375C16.8042 17.8792 17.1 18 17.45 18ZM17.5 22C16.1167 22 14.8167 21.7375 13.6 21.2125C12.3833 20.6875 11.325 19.975 10.425 19.075C9.525 18.175 8.8125 17.1167 8.2875 15.9C7.7625 14.6833 7.5 13.3833 7.5 12C7.5 10.6167 7.7625 9.31667 8.2875 8.1C8.8125 6.88333 9.525 5.825 10.425 4.925C11.325 4.025 12.3833 3.3125 13.6 2.7875C14.8167 2.2625 16.1167 2 17.5 2C18.8833 2 20.1833 2.2625 21.4 2.7875C22.6167 3.3125 23.675 4.025 24.575 4.925C25.475 5.825 26.1875 6.88333 26.7125 8.1C27.2375 9.31667 27.5 10.6167 27.5 12C27.5 13.3833 27.2375 14.6833 26.7125 15.9C26.1875 17.1167 25.475 18.175 24.575 19.075C23.675 19.975 22.6167 20.6875 21.4 21.2125C20.1833 21.7375 18.8833 22 17.5 22ZM17.5 20C19.7333 20 21.625 19.225 23.175 17.675C24.725 16.125 25.5 14.2333 25.5 12C25.5 9.76667 24.725 7.875 23.175 6.325C21.625 4.775 19.7333 4 17.5 4C15.2667 4 13.375 4.775 11.825 6.325C10.275 7.875 9.5 9.76667 9.5 12C9.5 14.2333 10.275 16.125 11.825 17.675C13.375 19.225 15.2667 20 17.5 20ZM17.6 7.7C18.0167 7.7 18.3792 7.83333 18.6875 8.1C18.9958 8.36667 19.15 8.7 19.15 9.1C19.15 9.46667 19.0375 9.79167 18.8125 10.075C18.5875 10.3583 18.3333 10.625 18.05 10.875C17.6667 11.2083 17.3292 11.575 17.0375 11.975C16.7458 12.375 16.6 12.825 16.6 13.325C16.6 13.5583 16.6875 13.7542 16.8625 13.9125C17.0375 14.0708 17.2417 14.15 17.475 14.15C17.725 14.15 17.9375 14.0667 18.1125 13.9C18.2875 13.7333 18.4 13.525 18.45 13.275C18.5167 12.925 18.6667 12.6125 18.9 12.3375C19.1333 12.0625 19.3833 11.8 19.65 11.55C20.0333 11.1833 20.3625 10.7833 20.6375 10.35C20.9125 9.91667 21.05 9.43333 21.05 8.9C21.05 8.05 20.7042 7.35417 20.0125 6.8125C19.3208 6.27083 18.5167 6 17.6 6C16.9667 6 16.3625 6.13333 15.7875 6.4C15.2125 6.66667 14.775 7.075 14.475 7.625C14.3583 7.825 14.3208 8.0375 14.3625 8.2625C14.4042 8.4875 14.5167 8.65833 14.7 8.775C14.9333 8.90833 15.175 8.95 15.425 8.9C15.675 8.85 15.8833 8.70833 16.05 8.475C16.2333 8.225 16.4625 8.03333 16.7375 7.9C17.0125 7.76667 17.3 7.7 17.6 7.7Z" fill="#C8C8C8"/>
<path d="M6.22266 31.2969H5.62109V27.6875H6.22266V31.2969ZM6.23047 33.2891H2.33203V34.0625H6.48047V34.5547H1.73047V32.8281H5.62109V32.1172H1.71484V31.6328H6.23047V33.2891ZM2.99609 28.6719C2.99609 28.9688 3.07161 29.2513 3.22266 29.5195C3.3737 29.7878 3.58464 30.0221 3.85547 30.2227C4.1263 30.4232 4.4362 30.5755 4.78516 30.6797L4.48047 31.1562C4.06901 31.026 3.70703 30.8294 3.39453 30.5664C3.08464 30.3008 2.85286 29.9909 2.69922 29.6367C2.54818 30.0247 2.3138 30.3646 1.99609 30.6562C1.68099 30.9479 1.3112 31.1641 0.886719 31.3047L0.597656 30.8203C0.94401 30.7057 1.2513 30.5404 1.51953 30.3242C1.79036 30.1055 2.0013 29.8542 2.15234 29.5703C2.30339 29.2839 2.37891 28.9844 2.37891 28.6719V28.5938H0.753906V28.0859H4.59766V28.5938H2.99609V28.6719ZM13.7617 31.75H10.9336V33.1719H10.3242V31.75H7.40234V31.2422H13.7617V31.75ZM12.9336 30.4453H8.23047V28.0312H12.9336V30.4453ZM8.83203 29.9531H12.3242V28.5156H8.83203V29.9531ZM13.0508 34.4844H8.21484V32.4844H8.83203V33.9688H13.0508V34.4844ZM20.2695 34.6328H19.6836V27.6875H20.2695V34.6328ZM18.8086 34.2812H18.2227V31.0391H16.75C16.3073 31.888 15.6211 32.5859 14.6914 33.1328L14.332 32.6875C15.0742 32.25 15.6419 31.7266 16.0352 31.1172C16.431 30.5052 16.6576 29.8281 16.7148 29.0859H14.6289V28.5781H17.3242C17.319 29.2865 17.2031 29.9401 16.9766 30.5391H18.2227V27.875H18.8086V34.2812ZM23.707 29.5547C23.7044 29.9661 23.7878 30.375 23.957 30.7812C24.1263 31.1849 24.3555 31.5443 24.6445 31.8594C24.9336 32.1745 25.2487 32.4089 25.5898 32.5625L25.2148 33.0469C24.819 32.8516 24.4596 32.5612 24.1367 32.1758C23.8164 31.7878 23.5742 31.3477 23.4102 30.8555C23.2487 31.3789 23.0065 31.8477 22.6836 32.2617C22.3607 32.6732 21.9961 32.9818 21.5898 33.1875L21.1992 32.6719C21.5404 32.513 21.8555 32.2721 22.1445 31.9492C22.4336 31.6237 22.6641 31.2513 22.8359 30.832C23.0078 30.4102 23.0951 29.9844 23.0977 29.5547V28.2891H23.707V29.5547ZM26.9648 34.6484H26.3477V27.6875H26.9648V34.6484ZM32.1211 28.8516H31.4102V31.1523C31.8138 31.1211 32.1602 31.0885 32.4492 31.0547L32.4961 31.5156C31.8659 31.6146 31.1914 31.681 30.4727 31.7148C29.7539 31.7487 29.0117 31.7656 28.2461 31.7656L28.1758 31.2578L29.0742 31.2461V28.8516H28.3711V28.3516H32.1211V28.8516ZM33.582 29.8047H34.6289V30.3281H33.582V32.8047H32.9727V27.6953H33.582V29.8047ZM33.9023 34.4844H29.2383V32.3203H29.8398V33.9688H33.9023V34.4844ZM29.6758 31.2344C30.1914 31.2188 30.569 31.2044 30.8086 31.1914V28.8516H29.6758V31.2344Z" fill="#C8C8C8"/>
</svg>
