<svg width="36" height="36" viewBox="0 0 36 36" fill="none" xmlns="http://www.w3.org/2000/svg">
<path d="M11.6665 21C11.1165 21 10.6457 20.8042 10.254 20.4125C9.86234 20.0208 9.6665 19.55 9.6665 19V5C9.6665 4.45 9.86234 3.97917 10.254 3.5875C10.6457 3.19583 11.1165 3 11.6665 3H25.6665C26.2165 3 26.6873 3.19583 27.079 3.5875C27.4707 3.97917 27.6665 4.45 27.6665 5V19C27.6665 19.55 27.4707 20.0208 27.079 20.4125C26.6873 20.8042 26.2165 21 25.6665 21H11.6665ZM11.6665 5V19H25.6665V5H23.6665V11.125C23.6665 11.325 23.5832 11.4708 23.4165 11.5625C23.2498 11.6542 23.0832 11.65 22.9165 11.55L21.6915 10.8C21.5248 10.7 21.3498 10.65 21.1665 10.65C20.9832 10.65 20.8082 10.7 20.6415 10.8L19.4165 11.55C19.2498 11.65 19.0832 11.6542 18.9165 11.5625C18.7498 11.4708 18.6665 11.325 18.6665 11.125V5H11.6665Z" fill="#C8C8C8"/>
<path d="M13.4517 30.5156H14.5767V31.0312H13.4517V34.6328H12.8423V27.6875H13.4517V30.5156ZM11.6548 28.4375C11.6548 29.4714 11.3957 30.4089 10.8774 31.25C10.3592 32.0885 9.55583 32.776 8.46729 33.3125L8.12354 32.8281C9.01676 32.3828 9.70817 31.8333 10.1978 31.1797C10.6873 30.5234 10.9673 29.7812 11.0376 28.9531H8.44385V28.4375H11.6548ZM20.7173 34.6484H20.1001V27.6875H20.7173V34.6484ZM17.022 28.2266C17.3657 28.2292 17.6717 28.3307 17.9399 28.5312C18.2082 28.7292 18.4178 29.0104 18.5688 29.375C18.7199 29.7396 18.7954 30.1641 18.7954 30.6484C18.7954 31.1328 18.7199 31.5573 18.5688 31.9219C18.4178 32.2865 18.2082 32.5677 17.9399 32.7656C17.6717 32.9635 17.3657 33.0625 17.022 33.0625C16.6782 33.0625 16.3709 32.9635 16.1001 32.7656C15.8319 32.5677 15.6222 32.2865 15.4712 31.9219C15.3228 31.5573 15.2485 31.1328 15.2485 30.6484C15.2485 30.1641 15.3228 29.7396 15.4712 29.375C15.6222 29.0104 15.8319 28.7292 16.1001 28.5312C16.3683 28.3307 16.6756 28.2292 17.022 28.2266ZM17.022 28.7734C16.7902 28.776 16.5845 28.8555 16.4048 29.0117C16.2277 29.1654 16.0897 29.3841 15.9907 29.668C15.8918 29.9492 15.8423 30.276 15.8423 30.6484C15.8423 31.0208 15.8918 31.349 15.9907 31.6328C16.0897 31.9141 16.229 32.1315 16.4087 32.2852C16.5884 32.4388 16.7928 32.5156 17.022 32.5156C17.2511 32.5156 17.4556 32.4388 17.6353 32.2852C17.8149 32.1315 17.9543 31.9141 18.0532 31.6328C18.1522 31.349 18.2017 31.0208 18.2017 30.6484C18.2017 30.276 18.1522 29.9492 18.0532 29.668C17.9543 29.3841 17.8149 29.1654 17.6353 29.0117C17.4582 28.8555 17.2537 28.776 17.022 28.7734ZM27.5142 31.5391H22.7173V28.3359H27.4438V28.8438H23.3267V31.0312H27.5142V31.5391ZM28.2642 33.6875H21.9048V33.1719H28.2642V33.6875Z" fill="#C8C8C8"/>
</svg>
