<svg width="35" height="36" viewBox="0 0 35 36" fill="none" xmlns="http://www.w3.org/2000/svg">
<path d="M11.5 19H14.5V14C14.5 13.7167 14.5958 13.4792 14.7875 13.2875C14.9792 13.0958 15.2167 13 15.5 13H19.5C19.7833 13 20.0208 13.0958 20.2125 13.2875C20.4042 13.4792 20.5 13.7167 20.5 14V19H23.5V10L17.5 5.5L11.5 10V19ZM9.5 19V10C9.5 9.68333 9.57083 9.38333 9.7125 9.1C9.85417 8.81667 10.05 8.58333 10.3 8.4L16.3 3.9C16.65 3.63333 17.05 3.5 17.5 3.5C17.95 3.5 18.35 3.63333 18.7 3.9L24.7 8.4C24.95 8.58333 25.1458 8.81667 25.2875 9.1C25.4292 9.38333 25.5 9.68333 25.5 10V19C25.5 19.55 25.3042 20.0208 24.9125 20.4125C24.5208 20.8042 24.05 21 23.5 21H19.5C19.2167 21 18.9792 20.9042 18.7875 20.7125C18.5958 20.5208 18.5 20.2833 18.5 20V15H16.5V20C16.5 20.2833 16.4042 20.5208 16.2125 20.7125C16.0208 20.9042 15.7833 21 15.5 21H11.5C10.95 21 10.4792 20.8042 10.0875 20.4125C9.69583 20.0208 9.5 19.55 9.5 19Z" fill="#C8C8C8"/>
<path d="M13.7812 30.3125H14.8359V27.8359H15.4219V34.2812H14.8359V30.8203H13.7812V32.7656H11.125V28.5H13.7812V30.3125ZM11.7031 32.2734H13.2031V28.9922H11.7031V32.2734ZM16.8203 34.6328H16.2266V27.6875H16.8203V34.6328ZM23.5156 32.7734H22.9062V27.6953H23.5156V32.7734ZM23.7344 34.4844H19.0312V32.2578H19.6406V33.9688H23.7344V34.4844ZM19.7656 28.1797C20.1094 28.1797 20.4193 28.2526 20.6953 28.3984C20.974 28.5417 21.1914 28.7435 21.3477 29.0039C21.5065 29.2617 21.5859 29.5547 21.5859 29.8828C21.5859 30.2161 21.5065 30.513 21.3477 30.7734C21.1914 31.0312 20.974 31.2331 20.6953 31.3789C20.4193 31.5221 20.1094 31.5938 19.7656 31.5938C19.4219 31.5938 19.1107 31.5221 18.832 31.3789C18.556 31.2331 18.3385 31.0312 18.1797 30.7734C18.0234 30.513 17.9453 30.2161 17.9453 29.8828C17.9453 29.5547 18.0234 29.2617 18.1797 29.0039C18.3385 28.7435 18.556 28.5417 18.832 28.3984C19.1107 28.2526 19.4219 28.1797 19.7656 28.1797ZM19.7656 28.7188C19.5339 28.7188 19.3242 28.7682 19.1367 28.8672C18.9518 28.9661 18.806 29.1042 18.6992 29.2812C18.5951 29.4583 18.5443 29.6589 18.5469 29.8828C18.5443 30.1094 18.5951 30.3125 18.6992 30.4922C18.806 30.6693 18.9518 30.8073 19.1367 30.9062C19.3242 31.0052 19.5339 31.0547 19.7656 31.0547C19.9922 31.0547 20.1979 31.0052 20.3828 30.9062C20.5703 30.8073 20.7174 30.6693 20.8242 30.4922C20.931 30.3125 20.9844 30.1094 20.9844 29.8828C20.9844 29.6615 20.931 29.4622 20.8242 29.2852C20.7174 29.1081 20.5703 28.9701 20.3828 28.8711C20.1979 28.7695 19.9922 28.7188 19.7656 28.7188Z" fill="#C8C8C8"/>
</svg>
