<svg width="58" height="24" viewBox="0 0 58 24" fill="none" xmlns="http://www.w3.org/2000/svg">
<path d="M45.8042 19.6916H42.7888C42.4449 19.6916 42.2597 19.4538 42.3126 19.1101L45.3545 0.47577C45.4074 0.132159 45.5926 0 45.91 0H48.9519C49.2958 0 49.481 0.237884 49.4281 0.581497L47.841 10.2026L52.9196 5.4978C53.1048 5.31278 53.29 5.23348 53.5545 5.23348H57.5486C58.0248 5.23348 58.157 5.57709 57.7867 5.89428L52.1261 10.8634L55.9086 19.0837C56.0674 19.4538 55.9086 19.6916 55.5119 19.6916H52.0732C51.7822 19.6916 51.5442 19.5595 51.4384 19.2952L48.9255 13.5595L47.021 15.2511L46.3862 19.2159C46.3332 19.5595 46.1216 19.6916 45.8042 19.6916Z" fill="#011627"/>
<path d="M40.6036 3.64758H37.3501C37.0062 3.64758 36.821 3.40969 36.8739 3.06608L37.2972 0.47577C37.3501 0.132159 37.5352 0 37.8526 0H41.1062C41.45 0 41.6352 0.237884 41.5823 0.581497L41.1591 3.17181C41.1062 3.51542 40.921 3.64758 40.6036 3.64758ZM37.8526 19.6916H34.8107C34.4669 19.6916 34.2817 19.4538 34.3346 19.1101L36.5301 5.70925C36.583 5.36564 36.7681 5.23348 37.0856 5.23348H40.1275C40.4713 5.23348 40.6565 5.47137 40.6036 5.81498L38.4081 19.2159C38.3552 19.5595 38.1701 19.6916 37.8526 19.6916Z" fill="#011627"/>
<path d="M18.5739 24.0001H15.6378C15.294 24.0001 15.0824 23.7622 15.1353 23.4186L17.9656 5.70933C18.0185 5.36572 18.2301 5.23356 18.521 5.23356H21.4836C21.8275 5.23356 22.0126 5.47144 21.9597 5.81505L21.801 6.79303C22.8062 5.57717 24.0229 4.96924 25.61 4.96924C29.6042 4.96924 31.879 8.24677 31.6938 12.5551C31.5351 16.9428 28.3874 19.956 24.7636 19.956C22.5417 19.956 21.1397 19.0045 20.0817 17.5772L19.1559 23.5243C19.103 23.8679 18.8914 24.0001 18.5739 24.0001ZM23.8907 16.5199C25.7687 16.5199 27.3294 14.8811 27.5674 12.5287C27.8584 10.2027 26.5887 8.43179 24.2874 8.43179C22.4358 8.43179 20.8752 9.99127 20.5578 12.0794C20.2668 14.2468 21.272 16.5199 23.8907 16.5199Z" fill="#011627"/>
<path d="M4.66611 19.9559C0.486793 19.9559 -0.439005 16.7048 0.169377 13.0044L1.35969 5.6828C1.41259 5.33919 1.59775 5.20703 1.91517 5.20703H4.95707C5.30094 5.20703 5.4861 5.44492 5.4332 5.78853L4.21644 13.163C3.95192 14.8018 4.29579 16.2291 6.359 16.2291C7.97253 16.2291 8.89833 15.0925 9.18929 13.348L10.4325 5.6828C10.4854 5.33919 10.6706 5.20703 10.988 5.20703L14.0299 5.23346C14.3738 5.23346 14.5854 5.47135 14.5325 5.81496L12.3635 19.2158C12.3106 19.5595 12.0989 19.6916 11.7815 19.6916H8.76607C8.4222 19.6916 8.21059 19.4802 8.2635 19.1366L8.4222 18.185C7.49641 19.1101 6.27964 19.9559 4.66611 19.9559Z" fill="#011627"/>
</svg>
