<svg width="16" height="16" viewBox="0 0 16 16" fill="none" xmlns="http://www.w3.org/2000/svg">
<path d="M9.33333 6C9.14444 6 8.98611 5.93611 8.85833 5.80833C8.73056 5.68056 8.66667 5.52222 8.66667 5.33333C8.66667 5.14444 8.73056 4.98611 8.85833 4.85833C8.98611 4.73056 9.14444 4.66667 9.33333 4.66667H10.6667V2.66667C10.6667 2.47778 10.7306 2.31944 10.8583 2.19167C10.9861 2.06389 11.1444 2 11.3333 2C11.5222 2 11.6806 2.06389 11.8083 2.19167C11.9361 2.31944 12 2.47778 12 2.66667V4.66667H13.3333C13.5222 4.66667 13.6806 4.73056 13.8083 4.85833C13.9361 4.98611 14 5.14444 14 5.33333C14 5.52222 13.9361 5.68056 13.8083 5.80833C13.6806 5.93611 13.5222 6 13.3333 6H9.33333ZM11.3333 14C11.1444 14 10.9861 13.9361 10.8583 13.8083C10.7306 13.6806 10.6667 13.5222 10.6667 13.3333V8C10.6667 7.81111 10.7306 7.65278 10.8583 7.525C10.9861 7.39722 11.1444 7.33333 11.3333 7.33333C11.5222 7.33333 11.6806 7.39722 11.8083 7.525C11.9361 7.65278 12 7.81111 12 8V13.3333C12 13.5222 11.9361 13.6806 11.8083 13.8083C11.6806 13.9361 11.5222 14 11.3333 14ZM4.66667 14C4.47778 14 4.31944 13.9361 4.19167 13.8083C4.06389 13.6806 4 13.5222 4 13.3333V11.3333H2.66667C2.47778 11.3333 2.31944 11.2694 2.19167 11.1417C2.06389 11.0139 2 10.8556 2 10.6667C2 10.4778 2.06389 10.3194 2.19167 10.1917C2.31944 10.0639 2.47778 10 2.66667 10H6.66667C6.85556 10 7.01389 10.0639 7.14167 10.1917C7.26944 10.3194 7.33333 10.4778 7.33333 10.6667C7.33333 10.8556 7.26944 11.0139 7.14167 11.1417C7.01389 11.2694 6.85556 11.3333 6.66667 11.3333H5.33333V13.3333C5.33333 13.5222 5.26944 13.6806 5.14167 13.8083C5.01389 13.9361 4.85556 14 4.66667 14ZM4.66667 8.66667C4.47778 8.66667 4.31944 8.60278 4.19167 8.475C4.06389 8.34722 4 8.18889 4 8V2.66667C4 2.47778 4.06389 2.31944 4.19167 2.19167C4.31944 2.06389 4.47778 2 4.66667 2C4.85556 2 5.01389 2.06389 5.14167 2.19167C5.26944 2.31944 5.33333 2.47778 5.33333 2.66667V8C5.33333 8.18889 5.26944 8.34722 5.14167 8.475C5.01389 8.60278 4.85556 8.66667 4.66667 8.66667Z" fill="#011627"/>
</svg>
