<svg width="16" height="16" viewBox="0 0 16 16" fill="none" xmlns="http://www.w3.org/2000/svg">
<path d="M9.64975 7.99984L4.74975 3.09984C4.58308 2.93317 4.50253 2.73595 4.50808 2.50817C4.51364 2.28039 4.59975 2.08317 4.76641 1.9165C4.93308 1.74984 5.1303 1.6665 5.35808 1.6665C5.58586 1.6665 5.78308 1.74984 5.94975 1.9165L11.0664 7.04984C11.1997 7.18317 11.2997 7.33317 11.3664 7.49984C11.4331 7.6665 11.4664 7.83317 11.4664 7.99984C11.4664 8.1665 11.4331 8.33317 11.3664 8.49984C11.2997 8.6665 11.1997 8.8165 11.0664 8.94984L5.93308 14.0832C5.76641 14.2498 5.57197 14.3304 5.34975 14.3248C5.12753 14.3193 4.93308 14.2332 4.76641 14.0665C4.59975 13.8998 4.51641 13.7026 4.51641 13.4748C4.51641 13.2471 4.59975 13.0498 4.76641 12.8832L9.64975 7.99984Z" fill="#C8C8C8"/>
</svg>
