<svg width="25" height="25" viewBox="0 0 25 25" fill="none" xmlns="http://www.w3.org/2000/svg">
<path d="M12.5 21.8594C12.2167 21.8594 11.9792 21.7635 11.7875 21.5719C11.5958 21.3802 11.5 21.1427 11.5 20.8594V13.8594H4.5C4.21667 13.8594 3.97917 13.7635 3.7875 13.5719C3.59583 13.3802 3.5 13.1427 3.5 12.8594C3.5 12.576 3.59583 12.3385 3.7875 12.1469C3.97917 11.9552 4.21667 11.8594 4.5 11.8594H11.5V4.85938C11.5 4.57604 11.5958 4.33854 11.7875 4.14687C11.9792 3.95521 12.2167 3.85938 12.5 3.85938C12.7833 3.85938 13.0208 3.95521 13.2125 4.14687C13.4042 4.33854 13.5 4.57604 13.5 4.85938V11.8594H20.5C20.7833 11.8594 21.0208 11.9552 21.2125 12.1469C21.4042 12.3385 21.5 12.576 21.5 12.8594C21.5 13.1427 21.4042 13.3802 21.2125 13.5719C21.0208 13.7635 20.7833 13.8594 20.5 13.8594H13.5V20.8594C13.5 21.1427 13.4042 21.3802 13.2125 21.5719C13.0208 21.7635 12.7833 21.8594 12.5 21.8594Z" fill="#FDFFFC"/>
</svg>
