<svg width="24" height="25" viewBox="0 0 24 25" fill="none" xmlns="http://www.w3.org/2000/svg">
<path d="M11.9998 15.8342C11.8665 15.8342 11.7415 15.8133 11.6248 15.7717C11.5081 15.73 11.3998 15.6592 11.2998 15.5592L6.6998 10.9592C6.51647 10.7758 6.4248 10.5425 6.4248 10.2592C6.4248 9.97585 6.51647 9.74251 6.6998 9.55918C6.88314 9.37585 7.11647 9.28418 7.3998 9.28418C7.68314 9.28418 7.91647 9.37585 8.0998 9.55918L11.9998 13.4592L15.8998 9.55918C16.0831 9.37585 16.3165 9.28418 16.5998 9.28418C16.8831 9.28418 17.1165 9.37585 17.2998 9.55918C17.4831 9.74251 17.5748 9.97585 17.5748 10.2592C17.5748 10.5425 17.4831 10.7758 17.2998 10.9592L12.6998 15.5592C12.5998 15.6592 12.4915 15.73 12.3748 15.7717C12.2581 15.8133 12.1331 15.8342 11.9998 15.8342Z" fill="#B3B3B3"/>
</svg>
