<svg width="24" height="24" viewBox="0 0 24 24" fill="none" xmlns="http://www.w3.org/2000/svg">
<path d="M6.35 16.6C7.2 15.95 8.15 15.4375 9.2 15.0625C10.25 14.6875 11.35 14.5 12.5 14.5C13.65 14.5 14.75 14.6875 15.8 15.0625C16.85 15.4375 17.8 15.95 18.65 16.6C19.2333 15.9167 19.6875 15.1417 20.0125 14.275C20.3375 13.4083 20.5 12.4833 20.5 11.5C20.5 9.28333 19.7208 7.39583 18.1625 5.8375C16.6042 4.27917 14.7167 3.5 12.5 3.5C10.2833 3.5 8.39583 4.27917 6.8375 5.8375C5.27917 7.39583 4.5 9.28333 4.5 11.5C4.5 12.4833 4.6625 13.4083 4.9875 14.275C5.3125 15.1417 5.76667 15.9167 6.35 16.6ZM12.5 12.5C11.5167 12.5 10.6875 12.1625 10.0125 11.4875C9.3375 10.8125 9 9.98333 9 9C9 8.01667 9.3375 7.1875 10.0125 6.5125C10.6875 5.8375 11.5167 5.5 12.5 5.5C13.4833 5.5 14.3125 5.8375 14.9875 6.5125C15.6625 7.1875 16 8.01667 16 9C16 9.98333 15.6625 10.8125 14.9875 11.4875C14.3125 12.1625 13.4833 12.5 12.5 12.5ZM12.5 21.5C11.1167 21.5 9.81667 21.2375 8.6 20.7125C7.38333 20.1875 6.325 19.475 5.425 18.575C4.525 17.675 3.8125 16.6167 3.2875 15.4C2.7625 14.1833 2.5 12.8833 2.5 11.5C2.5 10.1167 2.7625 8.81667 3.2875 7.6C3.8125 6.38333 4.525 5.325 5.425 4.425C6.325 3.525 7.38333 2.8125 8.6 2.2875C9.81667 1.7625 11.1167 1.5 12.5 1.5C13.8833 1.5 15.1833 1.7625 16.4 2.2875C17.6167 2.8125 18.675 3.525 19.575 4.425C20.475 5.325 21.1875 6.38333 21.7125 7.6C22.2375 8.81667 22.5 10.1167 22.5 11.5C22.5 12.8833 22.2375 14.1833 21.7125 15.4C21.1875 16.6167 20.475 17.675 19.575 18.575C18.675 19.475 17.6167 20.1875 16.4 20.7125C15.1833 21.2375 13.8833 21.5 12.5 21.5Z" fill="#011627"/>
</svg>
