<svg width="10" height="10" viewBox="0 0 10 10" fill="none" xmlns="http://www.w3.org/2000/svg">
<path d="M4.99984 4.99984C4.5415 4.99984 4.14914 4.83664 3.82275 4.51025C3.49636 4.18386 3.33317 3.7915 3.33317 3.33317C3.33317 2.87484 3.49636 2.48248 3.82275 2.15609C4.14914 1.8297 4.5415 1.6665 4.99984 1.6665C5.45817 1.6665 5.85053 1.8297 6.17692 2.15609C6.50331 2.48248 6.6665 2.87484 6.6665 3.33317C6.6665 3.7915 6.50331 4.18386 6.17692 4.51025C5.85053 4.83664 5.45817 4.99984 4.99984 4.99984ZM1.6665 7.49984V7.1665C1.6665 6.93039 1.72727 6.71338 1.8488 6.51546C1.97032 6.31755 2.13178 6.1665 2.33317 6.06234C2.76373 5.84706 3.20123 5.6856 3.64567 5.57796C4.09011 5.47032 4.5415 5.4165 4.99984 5.4165C5.45817 5.4165 5.90956 5.47032 6.354 5.57796C6.79845 5.6856 7.23595 5.84706 7.6665 6.06234C7.86789 6.1665 8.02935 6.31755 8.15088 6.51546C8.27241 6.71338 8.33317 6.93039 8.33317 7.1665V7.49984C8.33317 7.729 8.25157 7.92518 8.08838 8.08838C7.92518 8.25157 7.729 8.33317 7.49984 8.33317H2.49984C2.27067 8.33317 2.07449 8.25157 1.9113 8.08838C1.7481 7.92518 1.6665 7.729 1.6665 7.49984ZM2.49984 7.49984H7.49984V7.1665C7.49984 7.09011 7.48074 7.02067 7.44255 6.95817C7.40435 6.89567 7.354 6.84706 7.2915 6.81234C6.9165 6.62484 6.53803 6.48421 6.15609 6.39046C5.77414 6.29671 5.38873 6.24984 4.99984 6.24984C4.61095 6.24984 4.22553 6.29671 3.84359 6.39046C3.46164 6.48421 3.08317 6.62484 2.70817 6.81234C2.64567 6.84706 2.59532 6.89567 2.55713 6.95817C2.51893 7.02067 2.49984 7.09011 2.49984 7.1665V7.49984ZM4.99984 4.1665C5.229 4.1665 5.42518 4.08491 5.58838 3.92171C5.75157 3.75852 5.83317 3.56234 5.83317 3.33317C5.83317 3.104 5.75157 2.90782 5.58838 2.74463C5.42518 2.58143 5.229 2.49984 4.99984 2.49984C4.77067 2.49984 4.57449 2.58143 4.4113 2.74463C4.2481 2.90782 4.1665 3.104 4.1665 3.33317C4.1665 3.56234 4.2481 3.75852 4.4113 3.92171C4.57449 4.08491 4.77067 4.1665 4.99984 4.1665Z" fill="#B3B3B3"/>
</svg>
