<svg width="36" height="36" viewBox="0 0 36 36" fill="none" xmlns="http://www.w3.org/2000/svg">
<path d="M11.3335 22C10.7835 22 10.3127 21.8042 9.921 21.4125C9.52933 21.0209 9.3335 20.55 9.3335 20V16.2C9.3335 15.9667 9.37516 15.7334 9.4585 15.5C9.54183 15.2667 9.66683 15.0584 9.8335 14.875L11.3835 13.125C11.5668 12.9084 11.8043 12.7959 12.096 12.7875C12.3877 12.7792 12.6335 12.875 12.8335 13.075C13.0168 13.2584 13.1168 13.4834 13.1335 13.75C13.1502 14.0167 13.0668 14.25 12.8835 14.45L11.5085 16H25.1585L23.8335 14.5C23.6502 14.3 23.5668 14.0667 23.5835 13.8C23.6002 13.5334 23.7002 13.3084 23.8835 13.125C24.0835 12.925 24.3293 12.8292 24.621 12.8375C24.9127 12.8459 25.1502 12.9584 25.3335 13.175L26.8335 14.875C27.0002 15.0584 27.1252 15.2667 27.2085 15.5C27.2918 15.7334 27.3335 15.9667 27.3335 16.2V20C27.3335 20.55 27.1377 21.0209 26.746 21.4125C26.3543 21.8042 25.8835 22 25.3335 22H11.3335ZM11.3335 20H25.3335V18H11.3335V20ZM16.9585 14.375L13.4335 10.85C13.0502 10.4667 12.8627 9.99586 12.871 9.43753C12.8793 8.87919 13.0752 8.40836 13.4585 8.02503L18.3585 3.12503C18.7418 2.7417 19.2168 2.5417 19.7835 2.52503C20.3502 2.50836 20.8252 2.6917 21.2085 3.07503L24.7335 6.60003C25.1168 6.98336 25.3168 7.45003 25.3335 8.00003C25.3502 8.55003 25.1668 9.0167 24.7835 9.40003L19.7835 14.4C19.4002 14.7834 18.9293 14.9709 18.371 14.9625C17.8127 14.9542 17.3418 14.7584 16.9585 14.375ZM23.3335 8.02503L19.8085 4.50003L14.8585 9.45003L18.3835 12.975L23.3335 8.02503Z" fill="#C8C8C8"/>
<path d="M17.5522 32.4062H14.6616V34.6328H14.0601V32.4062H11.1929V31.8984H17.5522V32.4062ZM16.8335 31.1797H12.0444V28.0156H16.7554V28.5156H12.6538V29.3281H16.5913V29.8203H12.6538V30.6797H16.8335V31.1797ZM24.4741 33.7812H18.1147V33.2734H19.8882V31.6172H18.6929V31.1094H19.7788V28.8438H18.6772V28.3359H23.8647V28.8438H22.7632V31.1094H23.8491V31.6172H22.6538V33.2734H24.4741V33.7812ZM22.1616 31.1094V28.8438H20.3882V31.1094H22.1616ZM22.0444 33.2734V31.6172H20.5054V33.2734H22.0444Z" fill="#C8C8C8"/>
</svg>
